<svg viewBox="145.667 119.333 208 267" xmlns="http://www.w3.org/2000/svg" style="max-height: 500px" width="208" height="267">
<g>
<path fill="rgba(205,168,195,1)" d="M 307.50,136.50 L 312.94,139.50 L 314.33,140.27 L 316.97,142.27 L 318.25,143.34 L 320.57,145.82 L 321.68,147.11 L 323.54,149.92 L 325.67,154.32 L 325.73,154.46 L 325.83,155.03 L 325.88,155.37 L 325.97,156.32 L 326.02,156.85 L 326.11,158.22 L 326.15,158.95 L 326.23,160.74 L 326.26,161.69 L 326.34,163.93 L 326.37,165.11 L 326.43,167.82 L 326.47,169.23 L 326.52,172.43 L 326.55,174.09 L 326.60,177.79 L 326.62,179.71 L 326.67,183.94 L 326.69,186.12 L 326.73,190.90 L 326.75,193.36 L 326.78,198.71 L 326.79,201.46 L 326.82,207.40 L 326.83,210.44 L 326.86,216.99 L 326.87,220.34 L 326.88,227.51 L 326.89,231.18 L 326.90,239.01 L 326.91,251.50 L 326.98,345.50 L 324.58,350.66 L 323.90,352.12 L 322.21,354.82 L 321.32,356.13 L 319.22,358.51 L 318.12,359.67 L 315.63,361.71 L 311.50,364.35 L 311.01,364.62 L 310.05,365.05 L 309.54,365.26 L 308.22,365.58 L 307.47,365.74 L 305.33,365.97 L 304.72,366.03 L 303.28,366.12 L 302.51,366.17 L 300.71,366.25 L 299.76,366.29 L 297.54,366.35 L 296.37,366.38 L 293.69,366.43 L 292.28,366.46 L 289.07,366.50 L 287.39,366.52 L 283.59,366.55 L 281.62,366.57 L 277.18,366.60 L 274.88,366.61 L 269.75,366.64 L 267.10,366.65 L 261.22,366.68 L 251.50,366.71 L 248.14,366.73 L 242.02,366.75 L 239.05,366.76 L 233.66,366.78 L 231.05,366.78 L 226.34,366.79 L 224.06,366.79 L 219.98,366.79 L 218.02,366.79 L 214.52,366.78 L 212.83,366.77 L 209.86,366.75 L 208.43,366.73 L 205.93,366.70 L 204.73,366.67 L 202.64,366.62 L 201.65,366.59 L 199.94,366.52 L 199.12,366.49 L 197.72,366.40 L 196.39,366.30 L 194.46,366.06 L 193.58,365.92 L 192.22,365.58 L 191.58,365.40 L 190.40,364.95 L 189.40,364.56 L 187.48,363.57 L 186.54,363.04 L 184.75,361.79 L 183.87,361.13 L 182.24,359.65 L 181.45,358.88 L 180.00,357.21 L 179.30,356.35 L 178.07,354.53 L 177.48,353.59 L 176.48,351.64 L 176.02,350.65 L 175.67,349.66 L 175.75,349.61 L 176.63,349.39 L 177.00,349.60 L 177.00,349.87 L 177.51,350.74 L 178.27,351.28 L 178.75,351.43 L 179.61,351.97 L 180.29,352.59 L 180.65,353.00 L 182.15,354.89 L 182.77,355.98 L 185.25,359.25 L 186.21,360.21 L 186.69,360.60 L 187.61,361.30 L 188.02,361.51 L 190.13,362.46 L 190.61,362.62 L 190.76,362.64 L 191.00,362.64 L 191.00,362.57 L 191.26,362.50 L 191.66,362.56 L 191.95,362.65 L 193.36,363.11 L 194.25,363.50 L 195.51,363.96 L 196.29,364.12 L 197.97,364.39 L 199.02,364.46 L 201.28,364.56 L 202.67,364.54 L 205.67,364.47 L 207.50,364.38 L 208.76,364.32 L 209.83,364.29 L 210.46,364.27 L 213.29,364.20 L 215.08,364.16 L 218.89,364.09 L 221.11,364.06 L 225.75,363.99 L 228.32,363.96 L 233.63,363.90 L 236.48,363.87 L 242.31,363.81 L 245.36,363.79 L 257.90,363.70 L 264.34,363.68 L 311.17,363.50 L 313.56,360.73 L 315.47,358.70 L 316.02,358.20 L 316.23,358.03 L 316.62,357.76 L 316.72,357.73 L 317.20,357.36 L 317.33,357.00 L 317.27,356.81 L 317.41,356.33 L 317.73,355.90 L 317.98,355.66 L 319.17,354.61 L 319.90,354.09 L 321.39,353.11 L 322.03,352.81 L 322.63,352.55 L 322.86,352.50 L 323.27,352.45 L 323.37,352.52 L 323.53,352.50 L 323.29,352.12 L 323.01,351.79 L 322.30,350.27 L 322.00,348.93 L 322.00,348.30 L 321.63,346.68 L 321.09,346.02 L 320.75,346.03 L 319.11,346.49 L 318.05,347.13 L 317.62,347.55 L 316.83,348.43 L 316.62,348.88 L 316.34,349.76 L 316.47,350.12 L 316.61,351.41 L 316.44,352.29 L 316.24,352.59 L 315.45,353.39 L 314.65,354.03 L 314.14,354.37 L 311.87,355.80 L 310.59,356.49 L 307.99,357.80 L 306.86,358.26 L 305.77,358.67 L 305.32,358.80 L 304.50,359.00 L 304.22,359.00 L 302.55,359.29 L 301.67,359.72 L 301.50,360.00 L 300.62,360.71 L 299.79,361.00 L 299.38,361.00 L 298.51,360.68 L 298.38,360.19 L 298.58,359.87 L 298.71,359.39 L 298.55,359.19 L 298.33,359.16 L 297.81,359.13 L 297.40,359.18 L 296.50,359.31 L 295.89,359.43 L 295.15,359.53 L 294.42,359.60 L 293.95,359.63 L 292.93,359.69 L 292.32,359.72 L 291.04,359.78 L 290.30,359.80 L 287.12,359.91 L 285.20,359.95 L 281.16,360.04 L 278.88,360.08 L 274.16,360.15 L 271.60,360.18 L 266.35,360.24 L 263.59,360.26 L 252.21,360.33 L 246.37,360.34 L 234.70,360.35 L 229.20,360.32 L 223.78,360.29 L 221.24,360.27 L 216.28,360.23 L 214.02,360.19 L 209.68,360.13 L 207.80,360.09 L 204.24,360.01 L 202.81,359.96 L 201.44,359.91 L 200.85,359.88 L 199.74,359.82 L 199.29,359.79 L 198.47,359.73 L 198.16,359.70 L 197.64,359.64 L 197.50,359.60 L 193.91,358.40 L 192.73,357.88 L 192.22,357.62 L 191.25,357.09 L 190.89,356.85 L 188.85,355.72 L 188.30,355.52 L 188.09,355.49 L 187.72,355.46 L 187.64,355.53 L 187.32,355.68 L 187.33,355.55 L 187.45,355.38 L 187.33,354.50 L 186.81,353.67 L 186.39,353.25 L 185.51,351.72 L 185.33,350.59 L 185.50,350.15 L 185.68,349.36 L 187.11,351.16 L 188.13,352.31 L 190.55,354.25 L 194.63,356.50 L 195.22,356.74 L 196.39,357.14 L 196.99,357.32 L 198.47,357.62 L 199.29,357.75 L 201.47,357.96 L 202.07,358.01 L 203.48,358.09 L 204.22,358.12 L 205.94,358.19 L 206.84,358.21 L 208.91,358.26 L 209.99,358.28 L 212.46,358.31 L 213.75,358.32 L 216.67,358.34 L 218.19,358.34 L 221.60,358.35 L 223.38,358.35 L 227.33,358.34 L 229.39,358.34 L 233.94,358.32 L 236.29,358.31 L 241.48,358.29 L 250.04,358.25 L 253.87,358.23 L 261.07,358.18 L 264.59,358.15 L 271.12,358.08 L 274.29,358.04 L 280.05,357.94 L 282.84,357.90 L 287.77,357.79 L 290.13,357.73 L 294.16,357.61 L 296.05,357.55 L 299.10,357.42 L 299.80,357.38 L 301.00,357.31 L 301.56,357.28 L 302.49,357.20 L 302.92,357.17 L 303.56,357.09 L 303.85,357.05 L 304.20,356.97 L 305.41,356.64 L 307.74,355.52 L 308.89,354.88 L 311.01,353.24 L 312.04,352.36 L 313.86,350.29 L 316.10,346.80 L 316.35,346.32 L 316.75,345.27 L 316.94,344.68 L 317.25,342.88 L 317.32,342.35 L 317.44,341.02 L 317.50,340.31 L 317.60,338.55 L 317.65,337.61 L 317.73,335.33 L 317.77,334.12 L 317.84,331.24 L 317.87,329.71 L 317.92,326.13 L 317.94,324.24 L 317.98,319.87 L 317.99,317.58 L 318.02,312.34 L 318.03,309.60 L 318.04,303.39 L 318.05,301.77 L 318.05,298.35 L 318.05,296.60 L 318.05,292.90 L 318.06,291.02 L 318.06,287.04 L 318.06,285.01 L 318.06,280.73 L 318.05,278.56 L 318.05,273.98 L 318.05,271.65 L 318.05,266.76 L 318.05,264.27 L 318.04,259.05 L 318.04,250.84 L 318.03,246.05 L 318.02,237.17 L 318.02,232.84 L 318.00,224.86 L 317.99,220.97 L 317.98,213.83 L 317.97,210.36 L 317.94,204.02 L 317.93,200.95 L 317.90,195.36 L 317.88,192.66 L 317.85,187.78 L 317.83,185.43 L 317.79,181.22 L 317.76,179.19 L 317.71,175.59 L 317.69,173.86 L 317.62,170.83 L 317.59,169.39 L 317.52,166.88 L 317.49,165.69 L 317.41,163.66 L 317.37,162.71 L 317.28,161.11 L 317.23,160.36 L 317.13,159.15 L 317.07,158.59 L 316.96,157.72 L 316.90,157.32 L 316.77,156.75 L 316.57,156.16 L 316.05,155.19 L 314.46,153.13 L 313.60,152.11 L 311.53,150.18 L 310.47,149.25 L 308.25,147.70 L 305.10,146.13 L 304.95,146.09 L 304.39,145.99 L 304.07,145.95 L 303.16,145.86 L 302.67,145.82 L 301.45,145.74 L 300.80,145.70 L 299.28,145.62 L 297.69,145.55 L 293.73,145.42 L 291.64,145.36 L 286.80,145.25 L 284.28,145.20 L 278.74,145.12 L 275.91,145.09 L 269.85,145.03 L 263.71,144.98 L 250.66,144.96 L 244.14,144.95 L 231.43,145.03 L 228.34,145.05 L 222.48,145.11 L 219.62,145.15 L 214.35,145.24 L 211.81,145.29 L 207.32,145.40 L 205.19,145.47 L 201.65,145.60 L 200.84,145.64 L 199.42,145.72 L 198.74,145.76 L 197.63,145.84 L 197.11,145.88 L 196.32,145.97 L 195.52,146.12 L 194.25,146.47 L 191.63,147.93 L 190.34,148.77 L 187.94,150.94 L 186.79,152.08 L 184.93,154.63 L 183.12,158.52 L 183.07,158.68 L 182.99,159.47 L 182.95,159.94 L 182.87,161.35 L 182.84,162.12 L 182.76,164.09 L 182.73,165.14 L 182.66,167.64 L 182.63,168.95 L 182.56,171.93 L 182.53,173.48 L 182.48,176.91 L 182.45,178.67 L 182.40,182.50 L 182.37,184.47 L 182.32,188.66 L 182.30,190.80 L 182.26,195.31 L 182.24,197.60 L 182.20,202.40 L 182.16,207.25 L 182.10,217.63 L 182.08,222.90 L 182.04,233.86 L 182.03,239.38 L 182.01,250.60 L 182.00,256.21 L 182.01,267.35 L 182.02,272.88 L 182.04,283.61 L 182.06,288.90 L 182.11,298.90 L 182.12,301.34 L 182.15,306.02 L 182.17,308.33 L 182.21,312.71 L 182.23,314.87 L 182.27,318.91 L 182.29,320.89 L 182.34,324.56 L 182.37,326.35 L 182.42,329.59 L 182.45,331.16 L 182.51,333.95 L 182.54,335.28 L 182.60,337.57 L 182.64,338.64 L 182.71,340.38 L 182.75,341.18 L 182.82,342.34 L 182.95,343.37 L 183.27,344.77 L 184.51,347.46 L 185.22,348.77 L 185.52,349.15 L 185.38,349.28 L 184.41,349.40 L 183.52,349.03 L 183.08,348.65 L 181.08,347.24 L 179.88,346.74 L 179.34,346.70 L 178.29,346.78 L 177.79,347.04 L 176.82,347.70 L 176.34,348.24 L 175.73,349.00 L 175.53,349.29 L 175.29,348.61 L 174.54,345.49 L 174.52,345.36 L 174.47,344.61 L 174.45,344.16 L 174.41,342.81 L 174.39,342.07 L 174.34,340.16 L 174.34,339.76 L 174.53,339.84 L 174.80,340.03 L 176.00,341.02 L 176.65,341.77 L 179.00,344.50 L 179.00,341.22 L 179.37,338.76 L 179.62,338.13 L 179.76,337.90 L 180.08,337.52 L 180.25,337.46 L 180.81,336.70 L 181.04,335.65 L 181.09,334.78 L 181.12,333.85 L 181.12,333.29 L 181.10,332.10 L 181.08,331.39 L 181.02,329.91 L 180.98,329.06 L 180.88,327.26 L 180.82,326.24 L 180.68,323.63 L 180.59,321.53 L 180.55,320.33 L 180.47,317.84 L 180.43,316.48 L 180.36,313.68 L 180.33,312.19 L 180.22,306.06 L 180.18,302.89 L 180.12,296.52 L 180.12,293.50 L 180.06,283.72 L 179.97,276.76 L 179.91,273.34 L 179.77,266.60 L 179.68,263.60 L 179.59,260.68 L 179.55,259.36 L 179.45,256.83 L 179.41,255.75 L 179.24,251.74 L 179.16,249.40 L 179.14,248.39 L 179.10,246.47 L 179.09,245.66 L 179.10,244.14 L 179.11,243.52 L 179.16,242.37 L 179.20,241.92 L 179.29,241.11 L 179.35,240.83 L 179.48,240.34 L 179.56,240.20 L 179.74,240.00 L 179.85,240.00 L 180.13,239.78 L 180.30,239.41 L 180.37,239.10 L 180.51,238.41 L 180.57,237.94 L 180.69,236.92 L 180.73,236.28 L 180.82,234.90 L 180.85,234.07 L 180.91,232.33 L 180.94,231.31 L 180.97,229.18 L 180.98,227.96 L 181.00,225.43 L 181.00,224.00 L 180.98,220.26 L 180.96,218.01 L 180.93,217.01 L 180.88,215.10 L 180.85,214.26 L 180.78,212.68 L 180.73,212.01 L 180.64,210.76 L 180.58,210.26 L 180.47,209.34 L 180.40,209.00 L 180.26,208.42 L 180.19,208.25 L 180.02,208.00 L 179.94,208.00 L 179.73,207.54 L 179.61,206.79 L 179.57,206.23 L 179.49,204.98 L 179.46,204.19 L 179.41,202.52 L 179.40,201.55 L 179.38,199.53 L 179.38,198.42 L 179.39,196.14 L 179.40,194.92 L 179.48,189.90 L 179.56,187.30 L 179.72,182.09 L 179.83,179.64 L 180.06,174.88 L 180.20,172.89 L 180.33,170.98 L 180.41,170.16 L 180.55,168.62 L 180.63,168.01 L 180.79,166.92 L 180.86,166.58 L 181.02,166.02 L 181.11,165.96 L 181.50,164.92 L 181.46,163.82 L 181.33,163.24 L 181.00,162.10 L 180.76,161.69 L 180.25,161.00 L 179.97,161.00 L 179.33,160.50 L 179.33,159.76 L 179.51,159.26 L 179.99,158.19 L 180.38,157.62 L 181.25,156.48 L 181.81,155.96 L 183.37,154.02 L 184.03,152.68 L 184.04,152.21 L 184.49,150.00 L 185.16,148.69 L 185.65,148.15 L 186.72,147.15 L 187.37,146.81 L 188.74,146.25 L 189.50,146.16 L 191.90,145.66 L 193.19,145.17 L 193.45,144.91 L 194.63,144.27 L 195.64,144.00 L 196.12,144.00 L 197.43,143.72 L 198.07,143.30 L 198.17,143.03 L 198.68,142.84 L 199.45,142.72 L 200.04,142.66 L 201.36,142.55 L 202.21,142.49 L 204.03,142.39 L 205.12,142.34 L 207.42,142.25 L 208.74,142.20 L 211.48,142.12 L 213.00,142.08 L 216.15,142.01 L 217.86,141.98 L 221.39,141.91 L 223.27,141.89 L 227.13,141.84 L 229.18,141.81 L 233.35,141.78 L 235.53,141.76 L 244.54,141.71 L 249.37,141.71 L 259.23,141.72 L 264.39,141.74 L 274.82,141.80 L 280.17,141.86 L 284.39,141.90 L 286.96,141.93 L 288.14,141.95 L 290.40,141.98 L 291.43,142.00 L 293.41,142.03 L 294.31,142.05 L 297.62,142.14 L 298.94,142.19 L 301.36,142.31 L 302.30,142.38 L 303.99,142.54 L 304.63,142.64 L 305.78,142.87 L 306.20,143.00 L 307.57,143.63 L 308.10,144.09 L 310.36,145.64 L 311.99,146.46 L 312.60,146.61 L 314.53,147.87 L 315.70,149.29 L 316.04,150.09 L 317.14,152.14 L 317.51,152.62 L 317.67,152.77 L 317.98,153.00 L 318.10,153.00 L 318.55,153.23 L 318.93,153.59 L 319.14,153.86 L 320.04,155.12 L 320.46,155.92 L 321.20,157.58 L 321.46,158.54 L 321.46,159.03 L 321.40,160.03 L 321.25,160.64 L 320.86,161.97 L 320.56,162.84 L 319.40,166.59 L 318.85,168.90 L 318.70,169.83 L 318.49,171.51 L 318.54,171.98 L 318.62,172.39 L 318.69,172.48 L 318.88,172.58 L 319.01,172.49 L 319.45,172.42 L 319.69,172.59 L 319.79,172.79 L 319.97,173.26 L 320.03,173.60 L 320.15,174.36 L 320.18,174.85 L 320.23,175.89 L 320.23,176.51 L 320.21,177.84 L 320.18,178.60 L 320.09,180.20 L 320.03,181.10 L 319.88,182.97 L 319.78,184.00 L 319.71,185.02 L 319.66,185.94 L 319.64,186.51 L 319.59,187.72 L 319.57,188.44 L 319.53,189.93 L 319.51,190.78 L 319.43,194.42 L 319.40,196.58 L 319.33,201.13 L 319.30,203.69 L 319.25,208.99 L 319.23,211.87 L 319.19,217.76 L 319.18,220.88 L 319.16,227.22 L 319.15,230.50 L 319.15,237.13 L 319.16,240.50 L 319.16,250.50 L 319.15,257.01 L 319.14,260.14 L 319.10,266.29 L 319.08,269.18 L 319.04,274.81 L 319.01,277.38 L 318.94,282.35 L 318.91,284.53 L 318.83,288.67 L 318.79,290.37 L 318.75,292.02 L 318.72,292.74 L 318.68,294.11 L 318.66,294.69 L 318.61,295.78 L 318.58,296.21 L 318.53,296.98 L 318.51,297.25 L 318.23,300.78 L 318.17,302.56 L 318.20,303.18 L 318.30,304.26 L 318.42,304.56 L 318.68,305.00 L 318.88,305.00 L 319.63,305.73 L 319.93,306.78 L 319.98,307.40 L 319.99,308.66 L 319.87,309.20 L 319.55,310.16 L 319.25,310.35 L 319.09,310.72 L 318.99,311.23 L 318.93,311.60 L 318.83,312.42 L 318.78,312.93 L 318.68,314.03 L 318.63,314.67 L 318.45,317.44 L 318.37,319.09 L 318.24,322.54 L 318.20,324.40 L 318.12,328.37 L 318.09,330.58 L 318.09,331.49 L 318.10,333.19 L 318.12,333.88 L 318.17,335.13 L 318.22,335.61 L 318.32,336.49 L 318.39,336.80 L 318.54,337.35 L 318.65,337.53 L 319.11,338.00 L 319.45,338.00 L 320.42,338.20 L 320.86,338.57 L 320.99,338.94 L 321.18,339.79 L 321.21,340.44 L 321.22,341.91 L 321.17,342.93 L 321.12,343.99 L 321.13,344.30 L 321.17,344.77 L 321.26,344.79 L 321.47,344.69 L 321.68,344.44 L 322.15,343.80 L 322.51,343.29 L 322.93,341.99 L 323.05,341.24 L 323.11,340.75 L 323.21,339.69 L 323.26,339.02 L 323.35,337.58 L 323.39,336.70 L 323.47,334.84 L 323.50,333.73 L 323.56,331.39 L 323.59,330.02 L 323.64,327.15 L 323.66,325.50 L 323.70,322.04 L 323.72,320.08 L 323.74,315.99 L 323.75,313.68 L 323.77,308.90 L 323.78,306.23 L 323.78,300.70 L 323.78,297.64 L 323.78,291.32 L 323.78,287.84 L 323.77,280.67 L 323.76,276.74 L 323.74,268.67 L 323.73,264.28 L 323.70,255.24 L 323.69,250.35 L 323.62,232.05 L 323.56,220.36 L 323.52,214.86 L 323.49,209.42 L 323.47,206.81 L 323.43,201.65 L 323.41,199.18 L 323.37,194.33 L 323.34,192.02 L 323.30,187.51 L 323.28,185.39 L 323.23,181.24 L 323.21,179.32 L 323.16,175.58 L 323.14,173.87 L 323.09,170.56 L 323.06,169.08 L 323.01,166.24 L 322.99,165.00 L 322.94,162.66 L 322.91,161.69 L 322.86,159.87 L 322.84,159.18 L 322.79,157.93 L 322.76,157.52 L 322.71,156.87 L 322.69,156.78 L 321.49,152.88 L 320.62,150.77 L 320.09,149.87 L 318.96,148.13 L 318.24,147.30 L 316.68,145.65 L 315.68,144.75 L 312.07,141.93 L 310.94,141.19 L 310.46,140.93 L 309.57,140.48 L 309.26,140.40 L 307.79,139.78 L 307.30,139.32 L 307.41,139.14 L 307.17,139.08 L 306.73,139.04 L 306.38,139.02 L 305.58,138.98 L 305.06,138.96 L 303.94,138.93 L 303.25,138.91 L 301.81,138.88 L 300.98,138.87 L 299.24,138.84 L 298.27,138.82 L 294.10,138.78 L 291.64,138.76 L 286.49,138.73 L 283.59,138.71 L 277.60,138.70 L 274.35,138.70 L 267.67,138.70 L 264.13,138.70 L 256.92,138.72 L 253.16,138.74 L 242.18,138.80 L 235.19,138.85 L 231.92,138.89 L 225.53,138.96 L 222.62,139.00 L 216.98,139.08 L 214.49,139.13 L 209.75,139.22 L 207.76,139.27 L 205.85,139.32 L 205.00,139.34 L 203.37,139.40 L 202.67,139.42 L 201.34,139.47 L 200.80,139.50 L 199.80,139.55 L 199.42,139.58 L 198.76,139.63 L 198.56,139.66 L 198.26,139.71 L 198.26,139.74 L 197.84,140.02 L 197.28,140.18 L 196.89,140.23 L 195.07,140.39 L 193.96,140.35 L 191.93,140.41 L 190.73,140.60 L 190.18,140.78 L 189.12,141.19 L 188.60,141.49 L 187.58,142.16 L 187.06,142.60 L 184.75,144.30 L 184.08,144.69 L 183.82,144.81 L 183.34,145.00 L 183.20,145.00 L 182.39,145.38 L 181.76,145.98 L 181.43,146.42 L 180.05,148.47 L 179.42,149.74 L 178.22,152.38 L 177.85,153.59 L 177.53,154.77 L 177.45,155.28 L 177.37,156.23 L 177.43,156.58 L 177.56,157.86 L 177.50,158.51 L 177.39,158.76 L 177.10,159.19 L 176.86,159.35 L 176.32,159.63 L 175.95,159.72 L 174.79,160.43 L 174.88,159.16 L 175.14,156.55 L 175.28,155.32 L 175.62,153.31 L 175.80,152.37 L 176.21,150.84 L 176.43,150.13 L 176.93,148.97 L 177.46,147.87 L 178.80,146.28 L 181.33,143.82 L 182.27,142.90 L 183.92,141.39 L 184.76,140.69 L 186.62,139.57 L 187.62,139.06 L 190.24,138.27 L 190.97,138.09 L 192.66,137.79 L 193.56,137.64 L 195.63,137.40 L 196.72,137.29 L 199.25,137.10 L 200.57,137.02 L 203.62,136.88 L 205.21,136.81 L 208.84,136.72 L 210.74,136.67 L 215.03,136.61 L 217.27,136.58 L 222.29,136.55 L 224.90,136.53 L 230.72,136.51 L 233.73,136.51 L 240.42,136.50 L 251.50,136.50 M 271.42,287.02 L 271.58,287.67 L 271.96,289.38 L 272.16,290.31 L 272.60,292.50 L 272.83,293.65 L 273.33,296.24 L 273.59,297.58 L 274.12,300.47 L 274.39,301.95 L 274.95,305.06 L 275.51,308.20 L 276.64,314.76 L 277.20,318.02 L 278.22,324.29 L 278.46,325.80 L 278.91,328.66 L 279.12,330.05 L 279.50,332.58 L 279.68,333.80 L 279.98,335.93 L 280.12,336.94 L 280.31,338.58 L 280.40,339.33 L 280.49,340.38 L 280.47,341.21 L 280.37,341.49 L 279.87,342.03 L 279.58,342.31 L 278.75,342.84 L 278.29,343.10 L 277.15,343.61 L 276.55,343.86 L 275.15,344.34 L 273.68,344.82 L 270.11,345.67 L 268.24,346.08 L 264.09,346.75 L 261.96,347.07 L 257.52,347.52 L 255.29,347.72 L 250.85,347.92 L 248.66,347.98 L 244.53,347.87 L 243.97,347.84 L 244.13,347.82 L 244.71,347.59 L 245.82,347.03 L 246.26,346.60 L 247.27,346.01 L 248.33,345.63 L 248.99,345.45 L 251.95,344.81 L 253.58,344.66 L 256.43,344.38 L 258.65,344.14 L 259.82,344.00 L 262.18,343.72 L 263.32,343.58 L 265.54,343.30 L 266.50,343.17 L 269.42,342.85 L 271.21,342.73 L 271.98,342.72 L 273.42,342.74 L 273.96,342.80 L 274.90,342.95 L 275.14,343.08 L 276.01,343.34 L 276.47,343.20 L 276.67,342.94 L 277.07,342.28 L 277.26,341.72 L 277.66,340.44 L 277.89,339.53 L 278.67,335.87 L 278.94,333.88 L 278.96,333.17 L 278.90,331.93 L 278.74,331.64 L 278.35,331.28 L 278.03,331.48 L 277.21,331.23 L 276.74,330.42 L 276.61,329.79 L 276.35,328.45 L 276.11,327.22 L 275.96,326.49 L 275.33,323.34 L 275.02,321.77 L 274.57,319.50 L 274.31,318.13 L 274.21,317.57 L 274.03,316.53 L 273.97,316.18 L 273.89,315.60 L 273.89,315.53 L 273.80,315.04 L 273.64,314.46 L 273.53,314.07 L 272.97,312.30 L 272.61,311.26 L 272.11,309.41 L 271.83,307.93 L 271.73,307.14 L 271.41,303.88 L 271.45,302.50 L 271.41,298.68 L 271.33,297.67 L 271.28,297.30 L 271.17,296.66 L 271.10,296.53 L 270.83,295.65 L 270.70,294.83 L 270.65,294.35 L 270.53,292.24 L 270.54,291.15 L 270.63,289.02 L 270.75,288.26 L 270.89,287.56 L 270.97,287.34 L 271.15,287.00 L 271.26,287.00 L 271.35,286.76 M 234.11,277.25 L 234.61,277.75 L 235.51,279.04 L 235.89,279.99 L 235.95,280.43 L 236.00,281.26 L 235.88,281.54 L 235.56,282.00 L 235.24,282.00 L 234.94,282.62 L 234.75,283.60 L 234.67,284.32 L 234.53,285.88 L 234.47,286.83 L 234.38,288.81 L 234.37,289.89 L 234.26,293.06 L 234.13,295.02 L 234.04,295.86 L 233.86,297.41 L 233.76,297.97 L 233.54,298.93 L 233.43,299.11 L 233.13,299.93 L 232.98,300.70 L 232.93,301.16 L 232.81,303.18 L 232.88,304.22 L 232.84,306.24 L 232.61,307.64 L 232.39,308.39 L 231.89,309.91 L 231.53,310.75 L 230.73,312.47 L 230.21,313.43 L 228.92,315.98 L 228.35,317.34 L 228.20,317.86 L 227.99,318.81 L 228.01,319.15 L 228.15,319.75 L 228.35,319.95 L 228.90,321.53 L 228.82,322.27 L 228.71,322.72 L 228.43,323.68 L 228.21,324.26 L 227.75,325.67 L 227.58,326.45 L 227.56,326.75 L 227.57,327.29 L 227.64,327.48 L 227.83,327.78 L 227.99,327.83 L 228.38,328.21 L 228.61,328.68 L 228.70,329.00 L 228.99,330.46 L 228.98,331.33 L 228.93,332.81 L 228.84,333.42 L 228.76,333.54 L 228.57,333.68 L 228.44,333.59 L 228.13,333.30 L 227.93,333.00 L 227.48,332.55 L 227.30,332.63 L 227.27,332.87 L 227.25,333.49 L 227.30,334.00 L 227.43,335.19 L 227.56,336.00 L 228.16,339.39 L 228.35,340.27 L 228.44,340.59 L 228.60,341.12 L 228.66,341.22 L 229.12,341.57 L 229.68,341.85 L 230.06,342.00 L 231.84,342.64 L 232.92,342.96 L 235.17,343.58 L 236.25,343.82 L 238.31,344.22 L 239.05,344.28 L 240.32,344.53 L 240.83,344.81 L 240.81,344.96 L 240.81,345.71 L 240.85,346.41 L 240.88,346.75 L 241.17,347.48 L 241.44,347.63 L 239.00,347.31 L 238.66,347.25 L 237.62,347.03 L 237.06,346.91 L 235.72,346.59 L 231.33,345.44 L 230.22,345.13 L 228.62,344.58 L 227.91,344.31 L 226.96,343.72 L 226.54,343.40 L 226.03,342.61 L 225.50,341.02 L 225.32,340.20 L 225.22,338.64 L 225.21,338.28 L 225.27,337.70 L 225.45,337.09 L 225.53,336.96 L 225.71,336.14 L 225.80,335.65 L 225.99,334.26 L 226.08,333.50 L 226.26,331.72 L 226.47,328.79 L 226.50,328.29 L 226.61,327.00 L 226.67,326.32 L 226.85,324.72 L 227.03,323.06 L 227.56,319.07 L 229.56,305.98 L 229.93,303.85 L 230.62,299.50 L 230.96,297.34 L 231.55,293.28 L 231.83,291.34 L 232.25,288.05 L 232.34,287.30 L 232.48,286.02 L 232.61,284.50 L 232.72,282.85 L 233.23,279.16 L 233.37,278.28 L 233.68,276.69 L 233.78,276.30 M 229.11,167.41 L 230.29,167.90 L 230.86,168.20 L 231.76,169.12 L 232.58,170.87 L 232.97,172.70 L 233.93,175.79 L 234.47,177.28 L 235.92,179.99 L 236.72,181.35 L 238.91,184.12 L 239.52,184.84 L 240.91,186.35 L 243.31,188.81 L 250.63,196.08 L 257.32,189.78 L 258.23,188.92 L 259.91,187.25 L 260.71,186.44 L 262.04,185.00 L 262.64,184.33 L 263.47,183.29 L 264.00,182.36 L 264.00,182.06 L 264.43,181.22 L 265.45,180.04 L 265.65,179.88 L 266.07,179.23 L 266.27,178.86 L 266.67,177.91 L 267.56,174.46 L 267.77,173.07 L 268.32,170.93 L 268.62,169.97 L 269.38,168.66 L 269.79,168.11 L 270.80,167.58 L 272.63,167.60 L 273.10,167.73 L 273.73,168.02 L 274.00,168.18 L 274.26,168.68 L 274.34,168.98 L 274.29,169.87 L 273.90,171.83 L 273.54,173.37 L 273.17,176.52 L 273.05,178.10 L 273.13,181.27 L 273.23,182.85 L 273.77,185.96 L 275.07,190.47 L 277.15,196.01 L 273.48,210.76 L 272.92,212.99 L 272.03,216.78 L 271.62,218.58 L 271.02,221.67 L 270.76,223.15 L 270.48,225.74 L 270.38,226.99 L 270.41,229.28 L 270.47,230.41 L 270.84,232.62 L 271.06,233.74 L 271.77,236.07 L 272.17,237.27 L 273.23,239.92 L 275.23,244.50 L 276.34,246.96 L 278.48,252.30 L 279.54,255.06 L 281.63,261.14 L 282.67,264.29 L 284.77,271.28 L 285.30,273.10 L 286.37,276.93 L 288.00,283.00 L 288.41,284.58 L 289.41,288.10 L 289.93,289.90 L 291.10,293.76 L 292.31,297.67 L 295.01,305.78 L 295.69,307.78 L 297.06,311.65 L 297.74,313.54 L 299.05,317.08 L 299.70,318.79 L 300.90,321.83 L 302.53,325.64 L 303.01,326.70 L 303.87,328.64 L 304.27,329.56 L 304.92,331.12 L 305.22,331.83 L 305.59,332.84 L 305.76,333.53 L 305.24,333.96 L 303.59,334.81 L 302.68,335.23 L 300.45,336.00 L 299.28,336.37 L 296.74,336.96 L 292.86,337.57 L 292.10,337.65 L 290.85,337.77 L 290.25,337.82 L 289.28,337.88 L 288.38,337.92 L 287.22,337.79 L 286.72,337.67 L 286.07,337.16 L 285.26,335.86 L 285.19,335.74 L 285.00,335.19 L 284.89,334.87 L 284.61,333.95 L 284.47,333.44 L 284.11,332.18 L 283.93,331.51 L 283.51,329.94 L 283.07,328.31 L 282.03,324.27 L 281.49,322.15 L 280.30,317.35 L 279.69,314.89 L 278.41,309.61 L 277.77,306.94 L 276.48,301.47 L 275.83,298.73 L 274.59,293.34 L 272.86,285.65 L 272.71,284.95 L 272.37,283.77 L 272.19,283.23 L 271.84,282.42 L 271.67,282.07 L 271.34,281.70 L 270.98,281.70 L 271.03,281.64 L 272.08,281.02 L 272.54,281.28 L 272.71,281.75 L 273.45,282.63 L 274.19,283.00 L 274.58,283.00 L 275.53,283.72 L 275.92,284.75 L 275.98,285.38 L 276.00,286.65 L 275.86,287.21 L 275.46,288.21 L 275.09,288.44 L 274.61,288.25 L 274.57,287.55 L 274.71,287.00 L 274.93,285.59 L 274.87,285.00 L 274.73,285.00 L 274.22,285.62 L 273.84,286.52 L 273.68,287.10 L 273.60,288.20 L 273.76,288.96 L 273.94,289.36 L 274.39,290.16 L 274.72,290.59 L 275.46,291.48 L 275.95,291.95 L 277.31,293.52 L 278.02,294.64 L 278.30,295.28 L 278.82,296.61 L 279.01,297.39 L 279.37,299.03 L 279.50,300.01 L 280.40,304.68 L 280.78,306.17 L 280.98,306.82 L 281.37,308.03 L 281.55,308.46 L 282.09,310.13 L 282.44,311.55 L 282.60,312.35 L 283.17,315.71 L 283.28,317.27 L 283.94,321.71 L 284.25,322.93 L 284.42,323.40 L 284.77,324.22 L 284.94,324.42 L 285.40,325.34 L 285.65,326.20 L 285.73,326.72 L 285.94,328.99 L 285.84,330.21 L 285.72,332.59 L 285.80,333.61 L 285.96,333.91 L 286.37,334.41 L 286.74,334.54 L 287.60,334.74 L 288.25,334.82 L 290.29,334.71 L 290.70,334.51 L 290.83,334.36 L 291.01,334.03 L 291.02,333.82 L 291.30,332.46 L 291.70,331.44 L 291.95,331.04 L 292.50,330.33 L 292.84,330.10 L 293.03,330.11 L 293.44,330.20 L 293.71,330.38 L 294.29,330.81 L 294.69,331.15 L 296.95,332.70 L 298.35,333.26 L 298.96,333.31 L 300.09,333.24 L 300.50,332.97 L 301.22,332.26 L 301.38,331.66 L 301.39,330.44 L 301.20,329.35 L 301.02,328.72 L 300.08,325.94 L 299.41,324.46 L 297.96,321.53 L 297.20,320.32 L 296.43,319.18 L 296.07,318.74 L 295.35,317.94 L 295.03,317.71 L 294.22,316.80 L 293.81,315.93 L 293.66,315.32 L 293.39,313.99 L 293.30,313.11 L 293.14,311.21 L 293.10,310.02 L 292.96,307.46 L 292.82,305.93 L 292.74,305.29 L 292.56,304.13 L 292.46,303.74 L 292.26,303.09 L 292.17,303.02 L 290.60,301.25 L 289.69,299.57 L 289.31,298.52 L 288.60,296.28 L 288.34,295.00 L 287.89,292.33 L 287.78,290.88 L 287.42,287.64 L 287.11,285.92 L 286.90,285.24 L 286.45,283.97 L 286.15,283.47 L 285.52,282.52 L 285.13,282.13 L 283.52,279.55 L 283.00,277.37 L 283.00,276.00 L 283.00,274.21 L 282.99,273.24 L 282.98,272.84 L 282.90,271.48 L 282.78,270.97 L 282.49,270.01 L 282.21,269.48 L 281.56,268.34 L 281.05,267.50 L 280.39,266.12 L 279.97,264.98 L 279.78,264.34 L 279.08,261.61 L 278.85,260.24 L 278.47,257.58 L 278.47,256.58 L 278.49,255.66 L 278.56,255.34 L 278.73,254.79 L 278.88,254.70 L 278.99,254.51 L 278.68,254.51 L 278.37,254.58 L 277.27,254.10 L 276.51,253.11 L 276.16,252.33 L 275.46,250.62 L 275.15,249.54 L 274.59,247.27 L 274.38,245.99 L 273.72,243.33 L 273.47,242.77 L 273.35,242.62 L 273.12,242.42 L 273.02,242.49 L 272.53,242.25 L 272.05,241.70 L 271.74,241.27 L 271.11,240.31 L 270.76,239.71 L 270.05,238.44 L 269.69,237.72 L 267.73,232.25 L 266.93,228.25 L 266.79,226.24 L 266.69,222.28 L 266.92,220.51 L 267.20,218.78 L 267.41,218.00 L 267.88,216.51 L 268.19,215.87 L 268.92,214.23 L 269.45,212.94 L 269.71,212.25 L 270.72,209.44 L 271.06,208.28 L 272.11,205.41 L 272.43,204.79 L 272.57,204.62 L 272.82,204.38 L 272.90,204.43 L 273.15,204.12 L 273.33,203.49 L 273.40,203.01 L 273.56,201.93 L 273.62,201.27 L 273.74,199.87 L 273.78,199.08 L 273.82,196.16 L 273.72,194.65 L 273.59,194.04 L 273.27,192.92 L 273.01,192.43 L 272.43,191.50 L 272.03,191.03 L 270.53,188.28 L 270.00,186.03 L 270.00,184.78 L 269.94,182.67 L 269.80,181.80 L 269.65,181.58 L 269.28,181.28 L 268.97,181.29 L 268.27,181.41 L 267.75,181.57 L 266.17,182.25 L 265.32,182.83 L 265.01,183.17 L 264.44,183.89 L 264.28,184.29 L 264.02,185.14 L 264.02,185.60 L 263.39,186.89 L 262.49,187.99 L 261.95,188.52 L 260.83,189.54 L 260.33,189.88 L 259.40,190.41 L 259.15,190.35 L 258.76,190.49 L 258.67,190.81 L 258.73,191.04 L 258.54,191.68 L 258.13,192.29 L 257.83,192.67 L 256.35,194.32 L 255.42,195.18 L 253.52,196.89 L 252.67,197.51 L 251.86,198.08 L 251.52,198.26 L 250.91,198.56 L 250.72,198.57 L 249.03,198.33 L 247.90,197.85 L 247.36,197.46 L 246.28,196.59 L 245.78,196.02 L 244.80,194.78 L 244.36,194.04 L 242.28,191.60 L 240.51,190.21 L 239.71,189.88 L 238.37,189.07 L 237.37,188.25 L 236.86,187.75 L 234.83,185.51 L 234.08,184.31 L 232.70,181.87 L 232.11,180.52 L 231.96,179.86 L 231.75,178.54 L 231.76,177.77 L 231.85,176.15 L 231.98,175.12 L 232.25,172.57 L 232.27,171.45 L 232.19,171.12 L 231.95,170.60 L 231.72,170.50 L 231.17,170.37 L 230.76,170.40 L 228.96,170.93 L 228.17,171.69 L 227.99,172.26 L 227.77,173.55 L 227.87,174.39 L 228.21,176.19 L 228.60,177.28 L 229.64,180.98 L 229.95,183.15 L 229.90,184.16 L 229.67,186.15 L 229.35,187.16 L 228.57,189.20 L 227.97,190.31 L 226.72,193.66 L 226.26,196.08 L 226.22,197.25 L 226.26,199.51 L 226.48,200.45 L 226.74,201.35 L 226.91,201.72 L 227.30,202.41 L 227.54,202.66 L 227.99,203.48 L 228.27,204.34 L 228.39,204.88 L 228.80,207.29 L 228.85,208.61 L 229.32,212.20 L 229.58,213.13 L 229.73,213.46 L 230.03,214.02 L 230.19,214.12 L 230.67,214.93 L 230.97,215.95 L 231.10,216.63 L 231.36,218.10 L 231.45,218.96 L 231.62,220.73 L 231.67,221.67 L 231.95,227.68 L 232.04,229.60 L 232.08,230.43 L 232.15,231.99 L 232.18,232.54 L 232.07,235.97 L 231.93,237.03 L 231.84,237.46 L 231.65,238.27 L 231.53,238.54 L 231.00,240.43 L 230.85,241.75 L 230.91,242.23 L 230.75,243.08 L 230.41,243.71 L 230.14,244.04 L 228.79,245.38 L 227.81,245.97 L 225.69,247.40 L 225.29,247.73 L 225.21,247.84 L 225.13,248.00 L 225.23,248.00 L 225.36,248.28 L 225.28,248.72 L 225.16,249.04 L 224.52,250.58 L 223.97,251.56 L 222.39,255.15 L 221.55,257.79 L 221.39,258.81 L 220.77,261.65 L 220.22,263.36 L 219.90,264.08 L 219.23,265.45 L 218.86,265.97 L 218.11,266.89 L 217.71,267.14 L 217.28,267.97 L 216.97,269.02 L 216.82,269.74 L 216.52,271.29 L 216.39,272.20 L 216.15,274.08 L 216.06,275.08 L 215.70,278.04 L 215.40,279.75 L 215.24,280.43 L 214.90,281.67 L 214.72,282.07 L 214.36,282.71 L 214.19,282.77 L 213.46,283.25 L 213.29,283.66 L 213.40,283.84 L 213.53,284.66 L 213.51,285.56 L 213.44,286.15 L 213.07,288.78 L 212.76,290.29 L 212.07,293.33 L 211.69,294.62 L 211.31,295.85 L 211.12,296.35 L 210.75,297.23 L 210.58,297.50 L 209.98,298.71 L 209.53,299.85 L 209.30,300.53 L 208.38,303.49 L 208.03,305.00 L 206.80,309.86 L 206.04,312.38 L 205.70,313.29 L 205.02,314.88 L 204.71,315.33 L 204.10,316.00 L 203.82,316.00 L 203.34,316.29 L 203.33,316.72 L 203.50,317.00 L 203.61,317.71 L 203.31,318.00 L 203.00,318.00 L 202.39,318.29 L 202.33,318.72 L 202.50,319.00 L 202.70,319.71 L 202.53,320.00 L 202.31,320.00 L 201.98,320.37 L 201.77,320.94 L 201.68,321.36 L 201.36,323.36 L 201.31,324.64 L 200.87,328.22 L 200.63,329.20 L 200.49,329.56 L 200.21,330.19 L 200.06,330.34 L 199.14,331.74 L 199.09,332.66 L 199.36,333.14 L 200.12,334.12 L 200.83,334.68 L 202.46,335.84 L 203.62,336.52 L 206.07,337.83 L 207.47,338.41 L 208.12,338.57 L 209.41,338.82 L 210.08,338.84 L 211.45,338.80 L 212.25,338.69 L 215.30,338.10 L 216.67,337.52 L 217.12,337.01 L 217.88,335.82 L 218.15,334.87 L 218.41,333.86 L 218.53,333.25 L 218.76,331.94 L 218.89,331.16 L 219.38,328.83 L 219.80,327.44 L 220.06,326.84 L 220.59,325.71 L 220.90,325.25 L 221.53,324.41 L 221.88,324.10 L 223.01,323.04 L 223.42,322.50 L 223.46,322.27 L 223.44,321.81 L 223.29,321.55 L 222.88,321.02 L 222.53,320.68 L 221.42,319.05 L 221.07,317.74 L 221.11,316.86 L 221.18,315.94 L 221.26,315.40 L 221.47,314.27 L 221.62,313.62 L 221.97,312.25 L 222.20,311.45 L 222.69,309.79 L 222.99,308.84 L 224.39,303.39 L 224.72,301.69 L 224.83,300.98 L 224.99,299.65 L 224.99,299.19 L 225.26,297.02 L 225.44,296.58 L 225.54,296.48 L 225.77,296.36 L 225.89,296.43 L 226.30,296.39 L 226.56,296.08 L 226.68,295.80 L 226.93,295.16 L 227.04,294.73 L 227.26,293.80 L 227.35,293.24 L 227.70,290.78 L 227.81,289.29 L 227.97,286.18 L 227.95,284.50 L 228.35,280.33 L 228.63,279.15 L 228.82,278.67 L 229.20,277.79 L 229.43,277.50 L 230.52,275.72 L 230.89,274.66 L 230.89,274.17 L 230.78,273.21 L 230.55,272.75 L 229.97,271.83 L 229.50,271.36 L 228.47,269.73 L 228.09,268.43 L 228.05,267.76 L 228.08,266.42 L 228.25,265.82 L 228.71,264.69 L 229.10,264.30 L 230.18,263.81 L 230.95,263.97 L 231.33,264.24 L 232.10,264.89 L 232.46,265.37 L 233.16,266.39 L 233.47,267.00 L 234.04,268.42 L 233.81,268.35 L 233.72,268.39 L 233.53,268.70 L 233.44,268.89 L 233.23,269.50 L 233.13,269.85 L 232.90,270.81 L 232.78,271.33 L 232.52,272.65 L 232.39,273.36 L 232.09,275.08 L 231.59,278.12 L 231.47,278.91 L 231.14,280.93 L 230.96,282.01 L 230.52,284.55 L 230.30,285.88 L 229.79,288.84 L 229.52,290.37 L 228.95,293.65 L 228.37,296.99 L 227.09,304.20 L 225.14,315.00 L 220.50,340.50 L 213.04,340.80 L 211.51,340.86 L 209.11,340.86 L 208.00,340.83 L 206.18,340.61 L 205.32,340.47 L 203.74,339.98 L 201.27,338.88 L 200.46,338.47 L 199.13,337.75 L 198.51,337.40 L 197.54,336.77 L 197.10,336.46 L 196.46,335.86 L 196.18,335.55 L 195.85,334.91 L 195.72,334.58 L 195.67,333.83 L 195.68,333.44 L 195.90,332.53 L 196.03,332.05 L 196.48,330.90 L 197.39,328.85 L 197.81,327.94 L 198.78,325.54 L 199.29,324.26 L 200.41,321.21 L 200.98,319.62 L 202.19,316.06 L 202.81,314.23 L 204.09,310.27 L 205.37,306.24 L 207.95,297.53 L 211.52,284.50 L 212.17,281.96 L 213.38,277.36 L 213.97,275.14 L 215.07,271.11 L 215.60,269.17 L 216.60,265.67 L 217.09,263.97 L 218.02,260.94 L 218.47,259.47 L 219.34,256.84 L 219.76,255.57 L 220.59,253.29 L 220.99,252.19 L 221.79,250.21 L 222.98,247.50 L 223.55,246.28 L 224.58,244.09 L 225.07,243.03 L 225.96,241.15 L 226.38,240.24 L 227.13,238.63 L 227.49,237.86 L 228.12,236.50 L 228.71,235.19 L 229.57,233.17 L 229.94,232.25 L 230.41,230.81 L 230.61,230.15 L 230.76,229.05 L 230.81,228.52 L 230.72,227.51 L 230.66,227.00 L 230.40,225.84 L 229.90,223.66 L 229.71,222.81 L 229.37,221.23 L 229.21,220.47 L 228.93,219.16 L 228.80,218.56 L 228.62,217.68 L 228.49,217.00 L 228.48,216.93 L 228.37,216.53 L 228.30,216.29 L 228.09,215.62 L 227.23,213.00 L 227.07,212.52 L 226.65,211.07 L 226.43,210.29 L 225.95,208.42 L 224.55,202.32 L 224.37,201.45 L 224.08,200.01 L 223.95,199.33 L 223.76,198.18 L 223.59,197.09 L 223.56,195.46 L 223.61,194.68 L 224.02,193.17 L 225.19,190.32 L 225.74,189.07 L 226.49,186.35 L 226.80,184.95 L 227.07,181.93 L 227.14,180.39 L 226.93,177.08 L 226.06,171.81 L 225.91,171.14 L 225.75,170.07 L 225.69,169.58 L 225.72,168.84 L 225.75,168.51 L 225.97,168.06 L 226.52,167.63 L 227.16,167.39 L 228.46,167.35 M 174.23,329.96 L 174.27,330.41 L 174.36,331.24 L 174.41,331.52 L 174.52,332.00 L 174.57,332.12 L 174.69,332.29 L 174.75,332.27 L 175.63,332.26 L 176.00,332.61 L 176.00,332.92 L 175.56,333.90 L 174.91,334.48 L 174.50,334.64 L 174.26,334.90 L 174.23,332.45 L 174.21,330.91 L 174.20,329.54 M 235.69,315.43 L 236.19,316.06 L 236.35,316.47 L 236.53,317.24 L 236.49,317.57 L 236.30,318.18 L 236.12,318.37 L 235.70,318.69 L 235.44,318.69 L 234.91,318.57 L 234.64,318.31 L 234.13,317.39 L 234.00,316.65 L 234.02,316.30 L 234.14,315.62 L 234.29,315.38 L 234.64,315.00 L 234.89,315.00 M 270.62,282.27 L 270.56,282.52 L 270.55,283.17 L 270.84,284.67 L 270.47,283.83 L 270.32,283.25 L 270.32,282.99 L 270.57,282.07 L 270.75,281.91 M 234.06,275.15 L 234.16,274.76 L 234.20,274.63 M 234.79,272.32 L 234.72,272.94 L 234.48,274.11 L 234.22,274.57 L 234.54,273.52 L 234.75,271.73 M 234.52,269.64 L 234.64,270.56 L 234.46,269.47 Z"/>
<path fill="rgba(207,167,198,1)" d="M 194.25,363.50 L 193.36,363.11 L 191.95,362.65 L 191.66,362.56 L 191.26,362.50 L 191.00,362.57 L 191.00,362.64 L 190.76,362.64 L 190.61,362.62 L 190.13,362.46 L 188.02,361.51 L 187.61,361.30 L 186.69,360.60 L 186.21,360.21 L 185.25,359.25 L 182.77,355.98 L 182.15,354.89 L 180.65,353.00 L 180.29,352.59 L 179.61,351.97 L 178.75,351.43 L 178.27,351.28 L 177.51,350.74 L 177.00,349.87 L 177.00,349.60 L 176.63,349.39 L 175.75,349.61 L 175.58,349.71 L 175.41,349.73 L 175.35,349.71 L 175.41,349.51 L 175.46,349.39 L 175.73,349.00 L 176.34,348.24 L 176.82,347.70 L 177.79,347.04 L 178.29,346.78 L 179.34,346.70 L 179.88,346.74 L 181.08,347.24 L 183.08,348.65 L 183.52,349.03 L 184.41,349.40 L 185.38,349.28 L 185.58,349.08 L 185.71,349.24 L 185.50,350.15 L 185.33,350.59 L 185.51,351.72 L 186.39,353.25 L 186.81,353.67 L 187.33,354.50 L 187.45,355.38 L 187.33,355.55 L 187.32,355.68 L 187.64,355.53 L 187.72,355.46 L 188.09,355.49 L 188.30,355.52 L 188.85,355.72 L 190.89,356.85 L 191.25,357.09 L 192.22,357.62 L 192.73,357.88 L 193.91,358.40 L 197.50,359.60 L 197.64,359.64 L 198.16,359.70 L 198.47,359.73 L 199.29,359.79 L 199.74,359.82 L 200.85,359.88 L 201.44,359.91 L 202.81,359.96 L 204.24,360.01 L 207.80,360.09 L 209.68,360.13 L 214.02,360.19 L 216.28,360.23 L 221.24,360.27 L 223.78,360.29 L 229.20,360.32 L 234.70,360.35 L 246.37,360.34 L 252.21,360.33 L 263.59,360.26 L 266.35,360.24 L 271.60,360.18 L 274.16,360.15 L 278.88,360.08 L 281.16,360.04 L 285.20,359.95 L 287.12,359.91 L 290.30,359.80 L 291.04,359.78 L 292.32,359.72 L 292.93,359.69 L 293.95,359.63 L 294.42,359.60 L 295.15,359.53 L 295.89,359.43 L 296.50,359.31 L 297.40,359.18 L 297.81,359.13 L 298.33,359.16 L 298.55,359.19 L 298.71,359.39 L 298.58,359.87 L 298.38,360.19 L 298.51,360.68 L 299.38,361.00 L 299.79,361.00 L 300.62,360.71 L 301.50,360.00 L 301.67,359.72 L 302.55,359.29 L 304.22,359.00 L 304.50,359.00 L 305.32,358.80 L 305.77,358.67 L 306.86,358.26 L 307.99,357.80 L 310.59,356.49 L 311.87,355.80 L 314.14,354.37 L 314.65,354.03 L 315.45,353.39 L 316.24,352.59 L 316.44,352.29 L 316.61,351.41 L 316.47,350.12 L 316.34,349.76 L 316.62,348.88 L 316.83,348.43 L 317.62,347.55 L 318.05,347.13 L 319.11,346.49 L 320.75,346.03 L 321.09,346.02 L 321.63,346.68 L 322.00,348.30 L 322.00,348.93 L 322.30,350.27 L 323.01,351.79 L 323.29,352.12 L 323.53,352.50 L 323.37,352.52 L 323.27,352.45 L 322.86,352.50 L 322.63,352.55 L 322.03,352.81 L 321.39,353.11 L 319.90,354.09 L 319.17,354.61 L 317.98,355.66 L 317.73,355.90 L 317.41,356.33 L 317.27,356.81 L 317.33,357.00 L 317.20,357.36 L 316.72,357.73 L 316.62,357.76 L 316.23,358.03 L 316.02,358.20 L 315.47,358.70 L 313.56,360.73 L 311.17,363.50 L 264.34,363.68 L 257.90,363.70 L 245.36,363.79 L 242.31,363.81 L 236.48,363.87 L 233.63,363.90 L 228.32,363.96 L 225.75,363.99 L 221.11,364.06 L 218.89,364.09 L 215.08,364.16 L 213.29,364.20 L 210.46,364.27 L 209.83,364.29 L 208.76,364.32 L 207.50,364.38 L 205.67,364.47 L 202.67,364.54 L 201.28,364.56 L 199.02,364.46 L 197.97,364.39 L 196.29,364.12 L 195.51,363.96 M 240.88,346.75 L 240.85,346.41 L 240.81,345.71 L 240.81,344.96 L 240.83,344.81 L 240.32,344.53 L 239.05,344.28 L 238.31,344.22 L 236.25,343.82 L 235.17,343.58 L 232.92,342.96 L 231.84,342.64 L 230.06,342.00 L 229.68,341.85 L 229.12,341.57 L 228.66,341.22 L 228.60,341.12 L 228.44,340.59 L 228.35,340.27 L 228.16,339.39 L 227.56,336.00 L 227.43,335.19 L 227.30,334.00 L 227.25,333.49 L 227.27,332.87 L 227.30,332.63 L 227.48,332.55 L 227.93,333.00 L 228.13,333.30 L 228.44,333.59 L 228.57,333.68 L 228.76,333.54 L 228.84,333.42 L 228.93,332.81 L 228.98,331.33 L 228.99,330.46 L 228.70,329.00 L 228.61,328.68 L 228.38,328.21 L 227.99,327.83 L 227.83,327.78 L 227.64,327.48 L 227.57,327.29 L 227.56,326.75 L 227.58,326.45 L 227.75,325.67 L 228.21,324.26 L 228.43,323.68 L 228.71,322.72 L 228.82,322.27 L 228.90,321.53 L 228.35,319.95 L 228.15,319.75 L 228.01,319.15 L 227.99,318.81 L 228.20,317.86 L 228.35,317.34 L 228.92,315.98 L 230.21,313.43 L 230.73,312.47 L 231.53,310.75 L 231.89,309.91 L 232.39,308.39 L 232.61,307.64 L 232.84,306.24 L 232.88,304.22 L 232.81,303.18 L 232.93,301.16 L 232.98,300.70 L 233.13,299.93 L 233.43,299.11 L 233.54,298.93 L 233.76,297.97 L 233.86,297.41 L 234.04,295.86 L 234.13,295.02 L 234.26,293.06 L 234.37,289.89 L 234.38,288.81 L 234.47,286.83 L 234.53,285.88 L 234.67,284.32 L 234.75,283.60 L 234.94,282.62 L 235.24,282.00 L 235.56,282.00 L 235.88,281.54 L 236.00,281.26 L 235.95,280.43 L 235.89,279.99 L 235.51,279.04 L 234.61,277.75 L 234.11,277.25 L 233.77,276.27 L 234.21,274.58 L 234.48,274.11 L 234.72,272.94 L 234.79,272.32 L 234.69,270.99 L 234.52,269.64 L 233.47,267.00 L 233.16,266.39 L 232.46,265.37 L 232.10,264.89 L 231.33,264.24 L 230.95,263.97 L 230.18,263.81 L 229.10,264.30 L 228.71,264.69 L 228.25,265.82 L 228.08,266.42 L 228.05,267.76 L 228.09,268.43 L 228.47,269.73 L 229.50,271.36 L 229.97,271.83 L 230.55,272.75 L 230.78,273.21 L 230.89,274.17 L 230.89,274.66 L 230.52,275.72 L 229.43,277.50 L 229.20,277.79 L 228.82,278.67 L 228.63,279.15 L 228.35,280.33 L 227.95,284.50 L 227.97,286.18 L 227.81,289.29 L 227.70,290.78 L 227.35,293.24 L 227.26,293.80 L 227.04,294.73 L 226.93,295.16 L 226.68,295.80 L 226.56,296.08 L 226.30,296.39 L 225.89,296.43 L 225.77,296.36 L 225.54,296.48 L 225.44,296.58 L 225.26,297.02 L 224.99,299.19 L 224.99,299.65 L 224.83,300.98 L 224.72,301.69 L 224.39,303.39 L 222.99,308.84 L 222.69,309.79 L 222.20,311.45 L 221.97,312.25 L 221.62,313.62 L 221.47,314.27 L 221.26,315.40 L 221.18,315.94 L 221.11,316.86 L 221.07,317.74 L 221.42,319.05 L 222.53,320.68 L 222.88,321.02 L 223.29,321.55 L 223.44,321.81 L 223.46,322.27 L 223.42,322.50 L 223.01,323.04 L 221.88,324.10 L 221.53,324.41 L 220.90,325.25 L 220.59,325.71 L 220.06,326.84 L 219.80,327.44 L 219.38,328.83 L 218.89,331.16 L 218.76,331.94 L 218.53,333.25 L 218.41,333.86 L 218.15,334.87 L 217.88,335.82 L 217.12,337.01 L 216.67,337.52 L 215.30,338.10 L 212.25,338.69 L 211.45,338.80 L 210.08,338.84 L 209.41,338.82 L 208.12,338.57 L 207.47,338.41 L 206.07,337.83 L 203.62,336.52 L 202.46,335.84 L 200.83,334.68 L 200.12,334.12 L 199.36,333.14 L 199.09,332.66 L 199.14,331.74 L 200.06,330.34 L 200.21,330.19 L 200.49,329.56 L 200.63,329.20 L 200.87,328.22 L 201.31,324.64 L 201.36,323.36 L 201.68,321.36 L 201.77,320.94 L 201.98,320.37 L 202.31,320.00 L 202.53,320.00 L 202.70,319.71 L 202.50,319.00 L 202.33,318.72 L 202.39,318.29 L 203.00,318.00 L 203.31,318.00 L 203.61,317.71 L 203.50,317.00 L 203.33,316.72 L 203.34,316.29 L 203.82,316.00 L 204.10,316.00 L 204.71,315.33 L 205.02,314.88 L 205.70,313.29 L 206.04,312.38 L 206.80,309.86 L 208.03,305.00 L 208.38,303.49 L 209.30,300.53 L 209.53,299.85 L 209.98,298.71 L 210.58,297.50 L 210.75,297.23 L 211.12,296.35 L 211.31,295.85 L 211.69,294.62 L 212.07,293.33 L 212.76,290.29 L 213.07,288.78 L 213.44,286.15 L 213.51,285.56 L 213.53,284.66 L 213.40,283.84 L 213.29,283.66 L 213.46,283.25 L 214.19,282.77 L 214.36,282.71 L 214.72,282.07 L 214.90,281.67 L 215.24,280.43 L 215.40,279.75 L 215.70,278.04 L 216.06,275.08 L 216.15,274.08 L 216.39,272.20 L 216.52,271.29 L 216.82,269.74 L 216.97,269.02 L 217.28,267.97 L 217.71,267.14 L 218.11,266.89 L 218.86,265.97 L 219.23,265.45 L 219.90,264.08 L 220.22,263.36 L 220.77,261.65 L 221.39,258.81 L 221.55,257.79 L 222.39,255.15 L 223.97,251.56 L 224.52,250.58 L 225.16,249.04 L 225.28,248.72 L 225.36,248.28 L 225.23,248.00 L 225.13,248.00 L 225.21,247.84 L 225.29,247.73 L 225.69,247.40 L 227.81,245.97 L 228.79,245.38 L 230.14,244.04 L 230.41,243.71 L 230.75,243.08 L 230.91,242.23 L 230.85,241.75 L 231.00,240.43 L 231.53,238.54 L 231.65,238.27 L 231.84,237.46 L 231.93,237.03 L 232.07,235.97 L 232.18,232.54 L 232.15,231.99 L 232.08,230.43 L 232.04,229.60 L 231.95,227.68 L 231.67,221.67 L 231.62,220.73 L 231.45,218.96 L 231.36,218.10 L 231.10,216.63 L 230.97,215.95 L 230.67,214.93 L 230.19,214.12 L 230.03,214.02 L 229.73,213.46 L 229.58,213.13 L 229.32,212.20 L 228.85,208.61 L 228.80,207.29 L 228.39,204.88 L 228.27,204.34 L 227.99,203.48 L 227.54,202.66 L 227.30,202.41 L 226.91,201.72 L 226.74,201.35 L 226.48,200.45 L 226.26,199.51 L 226.22,197.25 L 226.26,196.08 L 226.72,193.66 L 227.97,190.31 L 228.57,189.20 L 229.35,187.16 L 229.67,186.15 L 229.90,184.16 L 229.95,183.15 L 229.64,180.98 L 228.60,177.28 L 228.21,176.19 L 227.87,174.39 L 227.77,173.55 L 227.99,172.26 L 228.17,171.69 L 228.96,170.93 L 230.76,170.40 L 231.17,170.37 L 231.72,170.50 L 231.95,170.60 L 232.19,171.12 L 232.27,171.45 L 232.25,172.57 L 231.98,175.12 L 231.85,176.15 L 231.76,177.77 L 231.75,178.54 L 231.96,179.86 L 232.11,180.52 L 232.70,181.87 L 234.08,184.31 L 234.83,185.51 L 236.86,187.75 L 237.37,188.25 L 238.37,189.07 L 239.71,189.88 L 240.51,190.21 L 242.28,191.60 L 244.36,194.04 L 244.80,194.78 L 245.78,196.02 L 246.28,196.59 L 247.36,197.46 L 247.90,197.85 L 249.03,198.33 L 250.72,198.57 L 250.91,198.56 L 251.52,198.26 L 251.86,198.08 L 252.67,197.51 L 253.52,196.89 L 255.42,195.18 L 256.35,194.32 L 257.83,192.67 L 258.13,192.29 L 258.54,191.68 L 258.73,191.04 L 258.67,190.81 L 258.76,190.49 L 259.15,190.35 L 259.40,190.41 L 260.33,189.88 L 260.83,189.54 L 261.95,188.52 L 262.49,187.99 L 263.39,186.89 L 264.02,185.60 L 264.02,185.14 L 264.28,184.29 L 264.44,183.89 L 265.01,183.17 L 265.32,182.83 L 266.17,182.25 L 267.75,181.57 L 268.27,181.41 L 268.97,181.29 L 269.28,181.28 L 269.65,181.58 L 269.80,181.80 L 269.94,182.67 L 270.00,184.78 L 270.00,186.03 L 270.53,188.28 L 272.03,191.03 L 272.43,191.50 L 273.01,192.43 L 273.27,192.92 L 273.59,194.04 L 273.72,194.65 L 273.82,196.16 L 273.78,199.08 L 273.74,199.87 L 273.62,201.27 L 273.56,201.93 L 273.40,203.01 L 273.33,203.49 L 273.15,204.12 L 272.90,204.43 L 272.82,204.38 L 272.57,204.62 L 272.43,204.79 L 272.11,205.41 L 271.06,208.28 L 270.72,209.44 L 269.71,212.25 L 269.45,212.94 L 268.92,214.23 L 268.19,215.87 L 267.88,216.51 L 267.41,218.00 L 267.20,218.78 L 266.92,220.51 L 266.69,222.28 L 266.79,226.24 L 266.93,228.25 L 267.73,232.25 L 269.69,237.72 L 270.05,238.44 L 270.76,239.71 L 271.11,240.31 L 271.74,241.27 L 272.05,241.70 L 272.53,242.25 L 273.02,242.49 L 273.12,242.42 L 273.35,242.62 L 273.47,242.77 L 273.72,243.33 L 274.38,245.99 L 274.59,247.27 L 275.15,249.54 L 275.46,250.62 L 276.16,252.33 L 276.51,253.11 L 277.27,254.10 L 278.37,254.58 L 278.68,254.51 L 278.99,254.51 L 278.88,254.70 L 278.73,254.79 L 278.56,255.34 L 278.49,255.66 L 278.47,256.58 L 278.47,257.58 L 278.85,260.24 L 279.08,261.61 L 279.78,264.34 L 279.97,264.98 L 280.39,266.12 L 281.05,267.50 L 281.56,268.34 L 282.21,269.48 L 282.49,270.01 L 282.78,270.97 L 282.90,271.48 L 282.98,272.84 L 282.99,273.24 L 283.00,274.21 L 283.00,276.00 L 283.00,277.37 L 283.52,279.55 L 285.13,282.13 L 285.52,282.52 L 286.15,283.47 L 286.45,283.97 L 286.90,285.24 L 287.11,285.92 L 287.42,287.64 L 287.78,290.88 L 287.89,292.33 L 288.34,295.00 L 288.60,296.28 L 289.31,298.52 L 289.69,299.57 L 290.60,301.25 L 292.17,303.02 L 292.26,303.09 L 292.46,303.74 L 292.56,304.13 L 292.74,305.29 L 292.82,305.93 L 292.96,307.46 L 293.10,310.02 L 293.14,311.21 L 293.30,313.11 L 293.39,313.99 L 293.66,315.32 L 293.81,315.93 L 294.22,316.80 L 295.03,317.71 L 295.35,317.94 L 296.07,318.74 L 296.43,319.18 L 297.20,320.32 L 297.96,321.53 L 299.41,324.46 L 300.08,325.94 L 301.02,328.72 L 301.20,329.35 L 301.39,330.44 L 301.38,331.66 L 301.22,332.26 L 300.50,332.97 L 300.09,333.24 L 298.96,333.31 L 298.35,333.26 L 296.95,332.70 L 294.69,331.15 L 294.29,330.81 L 293.71,330.38 L 293.44,330.20 L 293.03,330.11 L 292.84,330.10 L 292.50,330.33 L 291.95,331.04 L 291.70,331.44 L 291.30,332.46 L 291.02,333.82 L 291.01,334.03 L 290.83,334.36 L 290.70,334.51 L 290.29,334.71 L 288.25,334.82 L 287.60,334.74 L 286.74,334.54 L 286.37,334.41 L 285.96,333.91 L 285.80,333.61 L 285.72,332.59 L 285.84,330.21 L 285.94,328.99 L 285.73,326.72 L 285.65,326.20 L 285.40,325.34 L 284.94,324.42 L 284.77,324.22 L 284.42,323.40 L 284.25,322.93 L 283.94,321.71 L 283.28,317.27 L 283.17,315.71 L 282.60,312.35 L 282.44,311.55 L 282.09,310.13 L 281.55,308.46 L 281.37,308.03 L 280.98,306.82 L 280.78,306.17 L 280.40,304.68 L 279.50,300.01 L 279.37,299.03 L 279.01,297.39 L 278.82,296.61 L 278.30,295.28 L 278.02,294.64 L 277.31,293.52 L 275.95,291.95 L 275.46,291.48 L 274.72,290.59 L 274.39,290.16 L 273.94,289.36 L 273.76,288.96 L 273.60,288.20 L 273.68,287.10 L 273.84,286.52 L 274.22,285.62 L 274.73,285.00 L 274.87,285.00 L 274.93,285.59 L 274.71,287.00 L 274.57,287.55 L 274.61,288.25 L 275.09,288.44 L 275.46,288.21 L 275.86,287.21 L 276.00,286.65 L 275.98,285.38 L 275.92,284.75 L 275.53,283.72 L 274.58,283.00 L 274.19,283.00 L 273.45,282.63 L 272.71,281.75 L 272.54,281.28 L 272.08,281.02 L 271.03,281.64 L 270.57,282.07 L 270.32,282.99 L 270.32,283.25 L 270.47,283.83 L 270.94,284.89 L 271.25,285.47 L 271.50,286.38 L 271.26,287.00 L 271.15,287.00 L 270.97,287.34 L 270.89,287.56 L 270.75,288.26 L 270.63,289.02 L 270.54,291.15 L 270.53,292.24 L 270.65,294.35 L 270.70,294.83 L 270.83,295.65 L 271.10,296.53 L 271.17,296.66 L 271.28,297.30 L 271.33,297.67 L 271.41,298.68 L 271.45,302.50 L 271.41,303.88 L 271.73,307.14 L 271.83,307.93 L 272.11,309.41 L 272.61,311.26 L 272.97,312.30 L 273.53,314.07 L 273.64,314.46 L 273.80,315.04 L 273.89,315.53 L 273.89,315.60 L 273.97,316.18 L 274.03,316.53 L 274.21,317.57 L 274.31,318.13 L 274.57,319.50 L 275.02,321.77 L 275.33,323.34 L 275.96,326.49 L 276.11,327.22 L 276.35,328.45 L 276.61,329.79 L 276.74,330.42 L 277.21,331.23 L 278.03,331.48 L 278.35,331.28 L 278.74,331.64 L 278.90,331.93 L 278.96,333.17 L 278.94,333.88 L 278.67,335.87 L 277.89,339.53 L 277.66,340.44 L 277.26,341.72 L 277.07,342.28 L 276.67,342.94 L 276.47,343.20 L 276.01,343.34 L 275.14,343.08 L 274.90,342.95 L 273.96,342.80 L 273.42,342.74 L 271.98,342.72 L 271.21,342.73 L 269.42,342.85 L 266.50,343.17 L 265.54,343.30 L 263.32,343.58 L 262.18,343.72 L 259.82,344.00 L 258.65,344.14 L 256.43,344.38 L 253.58,344.66 L 251.95,344.81 L 248.99,345.45 L 248.33,345.63 L 247.27,346.01 L 246.26,346.60 L 245.82,347.03 L 244.71,347.59 L 244.13,347.82 L 242.98,347.96 L 242.42,347.97 L 241.54,347.68 L 241.17,347.48 M 236.35,316.47 L 236.19,316.06 L 235.69,315.43 L 234.89,315.00 L 234.64,315.00 L 234.29,315.38 L 234.14,315.62 L 234.02,316.30 L 234.00,316.65 L 234.13,317.39 L 234.64,318.31 L 234.91,318.57 L 235.44,318.69 L 235.70,318.69 L 236.12,318.37 L 236.30,318.18 L 236.49,317.57 L 236.53,317.24 M 321.17,342.93 L 321.22,341.91 L 321.21,340.44 L 321.18,339.79 L 320.99,338.94 L 320.86,338.57 L 320.42,338.20 L 319.45,338.00 L 319.11,338.00 L 318.65,337.53 L 318.54,337.35 L 318.39,336.80 L 318.32,336.49 L 318.22,335.61 L 318.17,335.13 L 318.12,333.88 L 318.10,333.19 L 318.09,331.49 L 318.09,330.58 L 318.12,328.37 L 318.20,324.40 L 318.24,322.54 L 318.37,319.09 L 318.45,317.44 L 318.63,314.67 L 318.68,314.03 L 318.78,312.93 L 318.83,312.42 L 318.93,311.60 L 318.99,311.23 L 319.09,310.72 L 319.25,310.35 L 319.55,310.16 L 319.87,309.20 L 319.99,308.66 L 319.98,307.40 L 319.93,306.78 L 319.63,305.73 L 318.88,305.00 L 318.68,305.00 L 318.42,304.56 L 318.30,304.26 L 318.20,303.18 L 318.17,302.56 L 318.23,300.78 L 318.51,297.25 L 318.53,296.98 L 318.58,296.21 L 318.61,295.78 L 318.66,294.69 L 318.68,294.11 L 318.72,292.74 L 318.75,292.02 L 318.79,290.37 L 318.83,288.67 L 318.91,284.53 L 318.94,282.35 L 319.01,277.38 L 319.04,274.81 L 319.08,269.18 L 319.10,266.29 L 319.14,260.14 L 319.15,257.01 L 319.16,250.50 L 319.16,240.50 L 319.15,237.13 L 319.15,230.50 L 319.16,227.22 L 319.18,220.88 L 319.19,217.76 L 319.23,211.87 L 319.25,208.99 L 319.30,203.69 L 319.33,201.13 L 319.40,196.58 L 319.43,194.42 L 319.51,190.78 L 319.53,189.93 L 319.57,188.44 L 319.59,187.72 L 319.64,186.51 L 319.66,185.94 L 319.71,185.02 L 319.78,184.00 L 319.88,182.97 L 320.03,181.10 L 320.09,180.20 L 320.18,178.60 L 320.21,177.84 L 320.23,176.51 L 320.23,175.89 L 320.18,174.85 L 320.15,174.36 L 320.03,173.60 L 319.97,173.26 L 319.79,172.79 L 319.69,172.59 L 319.45,172.42 L 319.01,172.49 L 318.88,172.58 L 318.69,172.48 L 318.62,172.39 L 318.54,171.98 L 318.49,171.51 L 318.70,169.83 L 318.85,168.90 L 319.40,166.59 L 320.56,162.84 L 320.86,161.97 L 321.25,160.64 L 321.40,160.03 L 321.46,159.03 L 321.46,158.54 L 321.20,157.58 L 320.46,155.92 L 320.04,155.12 L 319.14,153.86 L 318.93,153.59 L 318.55,153.23 L 318.10,153.00 L 317.98,153.00 L 317.67,152.77 L 317.51,152.62 L 317.14,152.14 L 316.04,150.09 L 315.70,149.29 L 314.53,147.87 L 312.60,146.61 L 311.99,146.46 L 310.36,145.64 L 308.10,144.09 L 307.57,143.63 L 306.20,143.00 L 305.78,142.87 L 304.63,142.64 L 303.99,142.54 L 302.30,142.38 L 301.36,142.31 L 298.94,142.19 L 297.62,142.14 L 294.31,142.05 L 293.41,142.03 L 291.43,142.00 L 290.40,141.98 L 288.14,141.95 L 286.96,141.93 L 284.39,141.90 L 280.17,141.86 L 274.82,141.80 L 264.39,141.74 L 259.23,141.72 L 249.37,141.71 L 244.54,141.71 L 235.53,141.76 L 233.35,141.78 L 229.18,141.81 L 227.13,141.84 L 223.27,141.89 L 221.39,141.91 L 217.86,141.98 L 216.15,142.01 L 213.00,142.08 L 211.48,142.12 L 208.74,142.20 L 207.42,142.25 L 205.12,142.34 L 204.03,142.39 L 202.21,142.49 L 201.36,142.55 L 200.04,142.66 L 199.45,142.72 L 198.68,142.84 L 198.17,143.03 L 198.07,143.30 L 197.43,143.72 L 196.12,144.00 L 195.64,144.00 L 194.63,144.27 L 193.45,144.91 L 193.19,145.17 L 191.90,145.66 L 189.50,146.16 L 188.74,146.25 L 187.37,146.81 L 186.72,147.15 L 185.65,148.15 L 185.16,148.69 L 184.49,150.00 L 184.04,152.21 L 184.03,152.68 L 183.37,154.02 L 181.81,155.96 L 181.25,156.48 L 180.38,157.62 L 179.99,158.19 L 179.51,159.26 L 179.33,159.76 L 179.33,160.50 L 179.97,161.00 L 180.25,161.00 L 180.76,161.69 L 181.00,162.10 L 181.33,163.24 L 181.46,163.82 L 181.50,164.92 L 181.11,165.96 L 181.02,166.02 L 180.86,166.58 L 180.79,166.92 L 180.63,168.01 L 180.55,168.62 L 180.41,170.16 L 180.33,170.98 L 180.20,172.89 L 180.06,174.88 L 179.83,179.64 L 179.72,182.09 L 179.56,187.30 L 179.48,189.90 L 179.40,194.92 L 179.39,196.14 L 179.38,198.42 L 179.38,199.53 L 179.40,201.55 L 179.41,202.52 L 179.46,204.19 L 179.49,204.98 L 179.57,206.23 L 179.61,206.79 L 179.73,207.54 L 179.94,208.00 L 180.02,208.00 L 180.19,208.25 L 180.26,208.42 L 180.40,209.00 L 180.47,209.34 L 180.58,210.26 L 180.64,210.76 L 180.73,212.01 L 180.78,212.68 L 180.85,214.26 L 180.88,215.10 L 180.93,217.01 L 180.96,218.01 L 180.98,220.26 L 181.00,224.00 L 181.00,225.43 L 180.98,227.96 L 180.97,229.18 L 180.94,231.31 L 180.91,232.33 L 180.85,234.07 L 180.82,234.90 L 180.73,236.28 L 180.69,236.92 L 180.57,237.94 L 180.51,238.41 L 180.37,239.10 L 180.30,239.41 L 180.13,239.78 L 179.85,240.00 L 179.74,240.00 L 179.56,240.20 L 179.48,240.34 L 179.35,240.83 L 179.29,241.11 L 179.20,241.92 L 179.16,242.37 L 179.11,243.52 L 179.10,244.14 L 179.09,245.66 L 179.10,246.47 L 179.14,248.39 L 179.16,249.40 L 179.24,251.74 L 179.41,255.75 L 179.45,256.83 L 179.55,259.36 L 179.59,260.68 L 179.68,263.60 L 179.77,266.60 L 179.91,273.34 L 179.97,276.76 L 180.06,283.72 L 180.12,293.50 L 180.12,296.52 L 180.18,302.89 L 180.22,306.06 L 180.33,312.19 L 180.36,313.68 L 180.43,316.48 L 180.47,317.84 L 180.55,320.33 L 180.59,321.53 L 180.68,323.63 L 180.82,326.24 L 180.88,327.26 L 180.98,329.06 L 181.02,329.91 L 181.08,331.39 L 181.10,332.10 L 181.12,333.29 L 181.12,333.85 L 181.09,334.78 L 181.04,335.65 L 180.81,336.70 L 180.25,337.46 L 180.08,337.52 L 179.76,337.90 L 179.62,338.13 L 179.37,338.76 L 179.00,341.22 L 179.00,344.50 L 176.65,341.77 L 176.00,341.02 L 174.80,340.03 L 174.53,339.84 L 174.09,339.65 L 173.65,339.68 L 173.56,339.77 L 173.40,339.73 L 173.32,339.68 L 173.19,339.39 L 173.00,337.77 L 173.00,337.07 L 173.44,335.80 L 174.50,334.64 L 174.91,334.48 L 175.56,333.90 L 176.00,332.92 L 176.00,332.61 L 175.63,332.26 L 174.75,332.27 L 174.69,332.29 L 174.57,332.12 L 174.52,332.00 L 174.41,331.52 L 174.36,331.24 L 174.27,330.41 L 174.23,329.96 L 174.15,328.75 L 174.11,328.10 L 174.04,326.49 L 174.00,325.63 L 173.94,323.57 L 173.91,322.49 L 173.86,319.96 L 173.84,318.63 L 173.80,315.60 L 173.78,314.02 L 173.75,310.44 L 173.73,308.59 L 173.71,304.45 L 173.70,302.31 L 173.69,297.56 L 173.68,295.12 L 173.67,289.74 L 173.67,286.97 L 173.67,280.93 L 173.67,277.83 L 173.68,271.09 L 173.69,267.64 L 173.70,260.17 L 173.73,248.12 L 173.75,242.30 L 173.78,231.09 L 173.79,225.57 L 173.82,215.14 L 173.83,212.59 L 173.84,207.67 L 173.85,205.25 L 173.86,200.61 L 173.87,198.33 L 173.88,194.00 L 173.89,191.88 L 173.90,187.88 L 173.90,185.92 L 173.92,182.29 L 173.92,180.52 L 173.93,177.28 L 173.93,175.71 L 173.94,172.90 L 173.95,171.54 L 173.95,169.18 L 173.96,168.05 L 173.96,166.17 L 173.97,165.29 L 173.97,163.92 L 173.97,163.30 L 173.98,162.47 L 173.98,161.87 L 173.99,161.42 L 174.57,160.56 L 175.95,159.72 L 176.32,159.63 L 176.86,159.35 L 177.10,159.19 L 177.39,158.76 L 177.50,158.51 L 177.56,157.86 L 177.43,156.58 L 177.37,156.23 L 177.45,155.28 L 177.53,154.77 L 177.85,153.59 L 178.22,152.38 L 179.42,149.74 L 180.05,148.47 L 181.43,146.42 L 181.76,145.98 L 182.39,145.38 L 183.20,145.00 L 183.34,145.00 L 183.82,144.81 L 184.08,144.69 L 184.75,144.30 L 187.06,142.60 L 187.58,142.16 L 188.60,141.49 L 189.12,141.19 L 190.18,140.78 L 190.73,140.60 L 191.93,140.41 L 193.96,140.35 L 195.07,140.39 L 196.89,140.23 L 197.28,140.18 L 197.84,140.02 L 198.26,139.74 L 198.26,139.71 L 198.56,139.66 L 198.76,139.63 L 199.42,139.58 L 199.80,139.55 L 200.80,139.50 L 201.34,139.47 L 202.67,139.42 L 203.37,139.40 L 205.00,139.34 L 205.85,139.32 L 207.76,139.27 L 209.75,139.22 L 214.49,139.13 L 216.98,139.08 L 222.62,139.00 L 225.53,138.96 L 231.92,138.89 L 235.19,138.85 L 242.18,138.80 L 253.16,138.74 L 256.92,138.72 L 264.13,138.70 L 267.67,138.70 L 274.35,138.70 L 277.60,138.70 L 283.59,138.71 L 286.49,138.73 L 291.64,138.76 L 294.10,138.78 L 298.27,138.82 L 299.24,138.84 L 300.98,138.87 L 301.81,138.88 L 303.25,138.91 L 303.94,138.93 L 305.06,138.96 L 305.58,138.98 L 306.38,139.02 L 306.73,139.04 L 307.17,139.08 L 307.41,139.14 L 307.30,139.32 L 307.79,139.78 L 309.26,140.40 L 309.57,140.48 L 310.46,140.93 L 310.94,141.19 L 312.07,141.93 L 315.68,144.75 L 316.68,145.65 L 318.24,147.30 L 318.96,148.13 L 320.09,149.87 L 320.62,150.77 L 321.49,152.88 L 322.69,156.78 L 322.71,156.87 L 322.76,157.52 L 322.79,157.93 L 322.84,159.18 L 322.86,159.87 L 322.91,161.69 L 322.94,162.66 L 322.99,165.00 L 323.01,166.24 L 323.06,169.08 L 323.09,170.56 L 323.14,173.87 L 323.16,175.58 L 323.21,179.32 L 323.23,181.24 L 323.28,185.39 L 323.30,187.51 L 323.34,192.02 L 323.37,194.33 L 323.41,199.18 L 323.43,201.65 L 323.47,206.81 L 323.49,209.42 L 323.52,214.86 L 323.56,220.36 L 323.62,232.05 L 323.69,250.35 L 323.70,255.24 L 323.73,264.28 L 323.74,268.67 L 323.76,276.74 L 323.77,280.67 L 323.78,287.84 L 323.78,291.32 L 323.78,297.64 L 323.78,300.70 L 323.78,306.23 L 323.77,308.90 L 323.75,313.68 L 323.74,315.99 L 323.72,320.08 L 323.70,322.04 L 323.66,325.50 L 323.64,327.15 L 323.59,330.02 L 323.56,331.39 L 323.50,333.73 L 323.47,334.84 L 323.39,336.70 L 323.35,337.58 L 323.26,339.02 L 323.21,339.69 L 323.11,340.75 L 323.05,341.24 L 322.93,341.99 L 322.51,343.29 L 322.15,343.80 L 321.68,344.44 L 321.47,344.69 L 321.26,344.79 L 321.17,344.77 L 321.13,344.30 L 321.12,343.99 Z"/>
</g>
</svg>